<svg xmlns="http://www.w3.org/2000/svg" xmlns:xlink="http://www.w3.org/1999/xlink" fill="none" version="1.1" width="160" height="97" viewBox="0 0 160 97"><g><g transform="matrix(-0.7060267329216003,0.7081851363182068,-0.7060263752937317,-0.7081855535507202,207.2758692694979,89.41411549288705)"><path d="M85.2136001586914,94.25803031005859C85.2136001586914,90.6210103100586,88.1619801586914,87.6726303100586,91.7990001586914,87.6726303100586C95.4360001586914,87.6726303100586,98.3844001586914,90.6210103100586,98.3844001586914,94.25803031005859L98.3844001586914,118.9372303100586L85.2136001586914,118.9372303100586L85.2136001586914,94.25803031005859Z" fill="#4CDFA2" fill-opacity="1"/></g><g><path d="M24.1096,0C19.2676,0,15.3425,3.93718,15.3425,8.79393L15.3425,33.1709C6.28809,37.3392,0,46.5133,0,57.1605L0,68.153C0,82.7232,11.7755,94.5347,26.3014,94.5347L43.8356,94.5347C58.3615,94.5347,70.137,82.7232,70.137,68.153L70.137,57.1605C70.137,46.5133,63.8489,37.3392,54.7945,33.1709L54.7945,8.79393C54.7945,3.93718,50.8693,0,46.0274,0C41.1854,0,37.2603,3.93718,37.2603,8.79393L37.2603,30.7788L32.8767,30.7788L32.8767,8.79393C32.8767,3.93718,28.9515,0,24.1096,0ZM26.3014,72.5499Q21.9178,72.5499,21.9178,68.153L21.9178,57.1605Q21.9178,52.7636,26.3014,52.7636L43.8356,52.7636Q48.2192,52.7636,48.2192,57.1605L48.2192,68.153Q48.2192,72.5499,43.8356,72.5499L26.3014,72.5499Z" fill-rule="evenodd" fill="#F76F5A" fill-opacity="1"/></g><g><path d="M96.59834413085937,90.22253278198242L96.60005413085938,90.17643278198241C98.66053413085938,92.88713278198242,101.67203413085937,94.53473278198243,105.52883413085938,94.53473278198243C112.50283413085938,94.53473278198243,118.42023413085937,91.08003278198242,118.42023413085937,79.86533278198243L118.42023413085937,72.53063278198242C118.42023413085937,61.315932781982426,112.50283413085938,57.86113278198242,105.52883413085938,57.86113278198242C102.62303413085938,57.86113278198242,100.24553413085937,58.81783278198242,98.39643413085938,60.35923278198242L98.39643413085938,51.48314278198242C98.39643413085938,47.97523278198242,95.80756413085938,46.16813278198242,93.00739413085938,46.16813278198242C90.20723413085938,46.16813278198242,87.67123413085938,47.97523278198242,87.67123413085938,51.48314278198242L87.67123413085938,90.05603278198242C87.67123413085938,92.52953278198243,89.67032413085937,94.53473278198243,92.13633413085938,94.53473278198243C94.53772413085937,94.53473278198243,96.50904413085938,92.62963278198242,96.59834413085937,90.22253278198242ZM107.53653413085938,80.60943278198242C107.53653413085938,84.22363278198242,104.84203413085937,85.44603278198242,102.99283413085938,85.44603278198242C101.14373413085937,85.44603278198242,98.39643413085938,84.22363278198242,98.39643413085938,80.60943278198242L98.39643413085938,71.52073278198242C98.39643413085938,68.11913278198242,101.19653413085938,66.94983278198242,102.99283413085938,66.94983278198242C104.84203413085937,66.94983278198242,107.53653413085938,68.17223278198242,107.53653413085938,71.78653278198243L107.53653413085938,80.60943278198242ZM122.32983413085938,51.05794278198242C122.32983413085938,54.56585278198242,124.86583413085938,55.94775278198242,127.82453413085938,55.94775278198242C130.78323413085937,55.94775278198242,133.31923413085937,54.56585278198242,133.31923413085937,51.05794278198242C133.31923413085937,47.550032781982424,130.78323413085937,46.16813278198242,127.82453413085938,46.16813278198242C124.86583413085938,46.16813278198242,122.32983413085938,47.550032781982424,122.32983413085938,51.05794278198242ZM127.86813413085937,94.53473278198243C130.8772341308594,94.53473278198243,133.31503413085937,92.08523278198243,133.30993413085938,89.06703278198242L133.26633413085938,63.54823278198242C133.26633413085938,59.88083278198242,130.78323413085937,58.23323278198242,127.82453413085938,58.23323278198242C124.86583413085938,58.23323278198242,122.38273413085938,59.88083278198242,122.38273413085938,63.54823278198242L122.42643413085938,89.08573278198241C122.43163413085938,92.09663278198242,124.86643413085937,94.53473278198243,127.86813413085937,94.53473278198243ZM141.77253413085938,83.58583278198242C141.77253413085938,91.61153278198242,145.84063413085937,94.48163278198243,152.86753413085938,94.48163278198243C154.66383413085936,94.48163278198243,156.72433413085938,93.95013278198242,157.93953413085939,93.15283278198243C159.41883413085938,92.19613278198241,160.31703413085938,90.28273278198242,159.84153413085937,88.10353278198242C159.47163413085937,86.34963278198242,157.99233413085938,85.18033278198243,156.2488341308594,85.18033278198243C155.19213413085936,85.18033278198243,154.71663413085938,85.44603278198242,153.9241341308594,85.39293278198242C153.0260341308594,85.33973278198242,152.23353413085937,84.96773278198242,152.23353413085937,83.37323278198242L152.23353413085937,68.59753278198242L155.35063413085936,68.59753278198242C158.67913413085938,68.59753278198242,160.00003413085938,66.47143278198243,160.00003413085938,64.23913278198242C160.00003413085938,62.06003278198242,158.73203413085938,59.77453278198242,155.35063413085936,59.77453278198242L152.23353413085937,59.77453278198242L152.23353413085937,53.34340278198242C152.23353413085937,49.72919278198242,149.64463413085937,48.081532781982425,147.00303413085936,48.081532781982425C144.36133413085938,48.081532781982425,141.77253413085938,49.72919278198242,141.77253413085938,53.34340278198242L141.77253413085938,59.77453278198242L140.02903413085937,59.77453278198242C136.64773413085936,59.77453278198242,135.3797341308594,62.06003278198242,135.3797341308594,64.23913278198242C135.3797341308594,66.47143278198243,136.70053413085938,68.59753278198242,140.02903413085937,68.59753278198242L141.77253413085938,68.59753278198242L141.77253413085938,83.58583278198242Z" fill="#252629" fill-opacity="1"/></g></g></svg>